# xmcd
#
# Track frame offsets:
#	150
#	14450
#	29172
#	43931
#	59131
#	76135
#	87900
#	102844
#	118711
#	135618
#
# Disc length: 1999 seconds
#
# Revision: 0
# Processed by: cddbd v1.5.1PL0 Copyright (c) Steve Scherf et al.
# Submitted via: audiograbber 1.83.01
#
DISCID=8907cd0a
DTITLE=White, Bryan - Between Now And Forever - White, Bryan - Between Now And 
DTITLE=Forever
DYEAR=1900
DGENRE=Country
TTITLE0=Sittin' On Go
TTITLE1=Still Life
TTITLE2=Blindhearted
TTITLE3=Nickel In The Well
TTITLE4=I'm Not Supposed To Love You Anymore
TTITLE5=So Much For Pretending
TTITLE6=Between Now And Forever
TTITLE7=A Hundred And One
TTITLE8=On Any Given Night
TTITLE9=That's Another Song
EXTD=
EXTT0=
EXTT1=
EXTT2=
EXTT3=
EXTT4=
EXTT5=
EXTT6=
EXTT7=
EXTT8=
EXTT9=
PLAYORDER=
